<?xml version="1.0" encoding="utf-8"?>
<!-- Generator: Adobe Illustrator 24.1.1, SVG Export Plug-In . SVG Version: 6.00 Build 0)  -->
<svg version="1.1"
	 id="svg3023" xmlns:cc="http://creativecommons.org/ns#" xmlns:dc="http://purl.org/dc/elements/1.1/" xmlns:inkscape="http://www.inkscape.org/namespaces/inkscape" xmlns:rdf="http://www.w3.org/1999/02/22-rdf-syntax-ns#" xmlns:sodipodi="http://sodipodi.sourceforge.net/DTD/sodipodi-0.dtd" xmlns:svg="http://www.w3.org/2000/svg"
	 xmlns="http://www.w3.org/2000/svg" xmlns:xlink="http://www.w3.org/1999/xlink" x="0px" y="0px" viewBox="0 0 582.9 84.8"
	 style="enable-background:new 0 0 582.9 84.8;" xml:space="preserve">
<style type="text/css">
	.st0{fill-rule:evenodd;clip-rule:evenodd;fill:#FFFFFF;}
	.st1{fill:#FFFFFF;}
</style>
<sodipodi:namedview  bordercolor="#666666" borderopacity="1" fit-margin-bottom="0" fit-margin-left="0" fit-margin-right="0" fit-margin-top="0" gridtolerance="10" guidetolerance="10" id="namedview18" inkscape:current-layer="svg3023" inkscape:cx="174.44199" inkscape:cy="40.664131" inkscape:document-rotation="0" inkscape:pageopacity="0" inkscape:pageshadow="2" inkscape:snap-grids="true" inkscape:window-height="1051" inkscape:window-maximized="1" inkscape:window-width="1920" inkscape:window-x="3840" inkscape:window-y="1080" inkscape:zoom="4" objecttolerance="10" pagecolor="#000000" showgrid="true">
	<inkscape:grid  id="grid12" type="xygrid"></inkscape:grid>
</sodipodi:namedview>
<g>
	<g>
		<path class="st0" d="M230,58.6V21.5h-8.7v40.7c0,1.1,0.5,2.2,1.3,3c0.8,0.8,2,1.3,3.2,1.3h38.9l5.1-7.9H230L230,58.6z"/>
		<path class="st0" d="M163.6,21.5v45h8.6v0l26.9,0c7.9-0.5,14.7-3.7,15.2-11.8c0.3-4.7-2.3-8.4-6.2-10.8c4-2.1,6.8-5.6,6.2-10.7
			c-1-7.6-7.7-11.3-15.6-11.7H163.6z M198.2,29.4c4,0,7.7,2,7.7,5.3c0,3.9-4.9,4.9-8.9,4.9h-19.7l-4.9,7.8h26
			c3.9,0.1,7.4,2.5,7.4,5.8c0,3.3-3.3,5.3-7.4,5.3h-26.3V29.4H198.2z"/>
		<g>
			<polygon class="st0" points="320.8,40.2 315.8,47.7 280.3,47.7 285,40.2 			"/>
			<path class="st0" d="M294,58.6c-5.5,0-10.3-3.1-12.8-7.6c-0.1-0.2-0.2-0.4-0.3-0.7c-0.1-0.1-0.1-0.2-0.1-0.3
				c-0.1-0.3-0.3-0.6-0.4-0.9c0,0,0,0,0,0c-0.6-1.6-0.9-3.3-0.9-5.1c0-2.1,0.5-4.2,1.3-6c0-0.1,0.1-0.2,0.1-0.3
				c0.1-0.2,0.2-0.5,0.4-0.7c0.1-0.2,0.2-0.4,0.3-0.5c0,0,0,0,0-0.1c2.4-4,6.8-6.7,11.7-7c0.1,0,0.2,0,0.2,0c0.2,0,0.3,0,0.5,0h26.7
				l5.1-7.9h-32.4c-12.4,0-22.5,10.1-22.5,22.5c0,12.4,10.1,22.5,22.5,22.5h27.3l5.1-7.9H294z"/>
		</g>
		<path class="st0" d="M147.4,66.5h10.2l-26.2-42.3c-1.2-1.7-3.1-2.7-5.3-2.7c-2.2,0-4.2,1-5.3,2.7L94.8,66.5H105l5.7-9.4H131
			l5.3-8.5h-20.5l10.4-17.3L147.4,66.5z"/>
		<g>
			<path class="st0" d="M361.4,39.7h-2h-14.8c-4,0-8.5-1.1-8.5-4.9c0-3.3,3.3-5.3,7.4-5.3h27.8l5.6-7.9h-34
				c-7.9,0.5-14.2,4.1-15.2,11.7c-1.1,8.3,7.4,14.2,15.8,14.2l1,0v0h16.1c4,0,7.9,1.9,7.9,5.8c0,3.3-3.3,5.3-7.4,5.3H333l-5.1,8
				h34.2c7.9-0.5,14.1-3.7,14.8-11.8C377.8,43.5,369.8,39.7,361.4,39.7z"/>
			<polygon class="st0" points="429.5,21.5 383.6,21.5 378.1,29.4 398.8,29.4 398.8,66.5 407.5,66.5 407.5,29.4 423.1,29.4 			"/>
		</g>
		<path class="st0" d="M464.7,66.2H475l-26.2-42.3c-1.2-1.7-3.1-2.7-5.3-2.7c-2.2,0-4.2,1-5.3,2.7l-26.1,42.3h10.2l5.7-9.4h20.3
			l5.3-8.5h-20.5l10.4-17.3L464.7,66.2z"/>
		<g>
			<path class="st0" d="M494.2,58.6c-5.5,0-10.3-3.1-12.8-7.6c-0.1-0.2-0.2-0.4-0.3-0.7c-0.1-0.1-0.1-0.2-0.1-0.3
				c-0.1-0.3-0.3-0.6-0.4-0.9c0,0,0,0,0,0c-0.6-1.6-0.9-3.3-0.9-5.1c0-2.1,0.5-4.2,1.3-6c0-0.1,0.1-0.2,0.1-0.3
				c0.1-0.2,0.2-0.5,0.4-0.7c0.1-0.2,0.2-0.4,0.3-0.5c0,0,0,0,0-0.1c2.4-4,6.8-6.7,11.7-7c0.1,0,0.2,0,0.2,0c0.2,0,0.3,0,0.5,0H521
				l5.1-7.9h-32.4c-12.4,0-22.5,10.1-22.5,22.5c0,12.4,10.1,22.5,22.5,22.5H521l5.1-7.9H494.2z"/>
		</g>
		<g>
			<path class="st1" d="M531.3,66.8V21.5h7.9v45.3H531.3z M568.6,66.8c-33.1-27.6-37.3-17.4-1-45.3h12.1l-29.6,22.1l30.6,23.2H568.6
				z"/>
		</g>
	</g>
	<g>
		<g>
			<g>
				<g>
					<g>
						<path class="st1" d="M72.2,67.9"/>
						<g>
							<g>
								<path class="st1" d="M92.5,51.2c-0.6,9.3-8.7,16.5-18.5,16.7c-0.7,0-1.3,0-2,0c-10.6-0.7-18.7-9.4-18-19.4
									c0.2-2.2,0.7-4.4,1.7-6.3c3.2-6.6,10.6-11,18.8-10.4C85.1,32.6,93.2,41.3,92.5,51.2z"/>
							</g>
						</g>
					</g>
				</g>
				<polygon class="st1" points="46.2,67.4 55.1,43.8 73.9,68 				"/>
			</g>
		</g>
		<circle class="st1" cx="49.3" cy="40.2" r="27.2"/>
		<g>
			<g>
				<path class="st1" d="M22.4,67.9"/>
				<g>
					<g>
						<path class="st1" d="M2,51.2c0.6,9.3,8.7,16.5,18.5,16.7c0.7,0,1.3,0,2,0c10.6-0.7,18.7-9.4,18-19.4c-0.2-2.2-0.7-4.4-1.7-6.3
							c-3.2-6.6-10.6-11-18.8-10.4C9.4,32.6,1.3,41.3,2,51.2z"/>
					</g>
				</g>
			</g>
		</g>
		<polygon class="st1" points="48.3,67.4 39.5,43.8 20.7,68 		"/>
	</g>
</g>
</svg>
